<svg width="16" height="16" viewBox="0 0 16 16" fill="none" xmlns="http://www.w3.org/2000/svg">
<path d="M8 3.13804C6.04133 1.91804 3.056 1.42671 0 1.33337V13.1427C2.62467 13.2227 5.19667 13.5967 7.11133 14.4727C7.67533 14.7314 8.32267 14.7314 8.88933 14.4727C10.804 13.5967 13.3753 13.2227 16 13.1427V1.33337C12.944 1.42671 9.95867 1.91804 8 3.13804ZM7.33333 13.0727C6.31667 12.7087 4.18933 12.0694 1.33333 11.8734V2.73804C4.77067 2.99737 6.35133 3.71337 7.33333 4.29404V13.0727ZM14.6667 11.874C11.8113 12.0694 9.68333 12.7087 8.66667 13.0734V4.29271C9.24533 3.94937 10.048 3.55471 11.3333 3.23671V7.33337L12.3333 6.33337L13.3333 7.33337V2.87271C13.7447 2.82004 14.186 2.77404 14.6667 2.73804V11.874Z" fill="#575757"/>
</svg>
