<svg width="40" height="40" viewBox="0 0 40 40" fill="none" xmlns="http://www.w3.org/2000/svg">
<path d="M10.0002 29.5833C10.0002 28.8933 10.5602 28.3333 11.2502 28.3333H28.7502C29.4402 28.3333 30.0002 28.8933 30.0002 29.5833C30.0002 30.2733 29.4402 30.8333 28.7502 30.8333H11.2502C10.5602 30.8333 10.0002 30.2733 10.0002 29.5833ZM3.3335 22.9166C3.3335 22.2266 3.8935 21.6666 4.5835 21.6666H35.4168C36.1068 21.6666 36.6668 22.2266 36.6668 22.9166C36.6668 23.6066 36.1068 24.1666 35.4168 24.1666H4.5835C3.8935 24.1666 3.3335 23.6066 3.3335 22.9166ZM3.3335 16.2499C3.3335 15.5599 3.8935 14.9999 4.5835 14.9999H35.4168C36.1068 14.9999 36.6668 15.5599 36.6668 16.2499C36.6668 16.9399 36.1068 17.4999 35.4168 17.4999H4.5835C3.8935 17.4999 3.3335 16.9399 3.3335 16.2499ZM10.0002 9.58325C10.0002 8.89325 10.5602 8.33325 11.2502 8.33325H28.7502C29.4402 8.33325 30.0002 8.89325 30.0002 9.58325C30.0002 10.2733 29.4402 10.8333 28.7502 10.8333H11.2502C10.5602 10.8333 10.0002 10.2733 10.0002 9.58325Z" fill="black"/>
</svg>
